<svg t="1622089588165" class="icon" viewBox="0 0 1024 1024" version="1.1" xmlns="http://www.w3.org/2000/svg" p-id="3937" width="16" height="16"><path d="M320 352H192c-17.7 0-32-14.3-32-32V192c0-17.7 14.3-32 32-32h128c17.7 0 32 14.3 32 32v128c0 17.7-14.3 32-32 32z m-96-64h64v-64h-64v64zM576 352H448c-17.7 0-32-14.3-32-32V192c0-17.7 14.3-32 32-32h128c17.7 0 32 14.3 32 32v128c0 17.7-14.3 32-32 32z m-96-64h64v-64h-64v64zM831 351H705c-17.7 0-32-14.3-32-32V193c0-17.7 14.3-32 32-32h126c17.7 0 32 14.3 32 32v126c0 17.7-14.3 32-32 32z m-94-64h62v-62h-62v62zM320 608H192c-17.7 0-32-14.3-32-32V448c0-17.7 14.3-32 32-32h128c17.7 0 32 14.3 32 32v128c0 17.7-14.3 32-32 32z m-96-64h64v-64h-64v64zM576 608H448c-17.7 0-32-14.3-32-32V448c0-17.7 14.3-32 32-32h128c17.7 0 32 14.3 32 32v128c0 17.7-14.3 32-32 32z m-96-64h64v-64h-64v64zM832 608H704c-17.7 0-32-14.3-32-32V448c0-17.7 14.3-32 32-32h128c17.7 0 32 14.3 32 32v128c0 17.7-14.3 32-32 32z m-96-64h64v-64h-64v64zM320 864H192c-17.7 0-32-14.3-32-32V704c0-17.7 14.3-32 32-32h128c17.7 0 32 14.3 32 32v128c0 17.7-14.3 32-32 32z m-96-64h64v-64h-64v64zM576 864H448c-17.7 0-32-14.3-32-32V704c0-17.7 14.3-32 32-32h128c17.7 0 32 14.3 32 32v128c0 17.7-14.3 32-32 32z m-96-64h64v-64h-64v64zM832 864H704c-17.7 0-32-14.3-32-32V704c0-17.7 14.3-32 32-32h128c17.7 0 32 14.3 32 32v128c0 17.7-14.3 32-32 32z m-96-64h64v-64h-64v64z" p-id="3938"></path></svg>