<svg t="1622027376128" class="icon" viewBox="0 0 1303 1024" version="1.1" xmlns="http://www.w3.org/2000/svg" p-id="2367" width="32" height="32"><path d="M1293.964 157.975c-6.703-35.188-27.555-56.32-62.464-61.905-0.745 0-1.397-0.745-2.048-0.745-0.652 0-1.304-0.652-2.048-0.652l-1.304-0.744H119.808c-16.756 0-32.21 2.14-47.01 6.33l-2.049 0.745A101.47 101.47 0 0 0 0.931 197.353V887.9c0 27.462 8.75 54.924 24.855 76.707 1.397 2.141 3.351 4.282 5.4 7.075l0.651 0.745 1.396 1.396c25.507 28.858 62.464 45.708 101.47 45.708h1049.134c53.062 0 99.514-37.981 110.22-90.112l0.744-2.048v-0.745c1.304-7.727 2.7-15.453 2.7-22.528V177.804c-1.396-5.586-2.048-11.916-3.444-19.736zM423.843 549.423l-126.418 118.97c-72.61 68.235-145.221 135.912-217.925 204.8V256l344.343 293.516z m452.515-1.397C990.673 450.84 1103.686 354.397 1218 257.303V861.93L1074.734 730.3 876.45 548.025z m-544.023 194.84l151.365-141.5c25.507 21.877 50.363 43.008 75.31 64.14 14.058 11.916 28.207 23.924 41.706 35.84l18.152 15.546c19.55 16.85 37.61 16.85 57.717 0 45.8-38.726 91.508-78.196 138.612-117.574l83.41 76.707c95.51 87.971 190.277 175.29 286.44 263.261H123.811c70.004-66.094 139.264-130.886 208.524-196.422zM648.378 637.3a135272.448 135272.448 0 0 1-354.397-302.73L107.8 175.476c81.269-2.7 437.714-4.747 739.608-4.747 175.476 0 297.89 0.651 346.95 2.048L648.377 637.393z" fill="#1890FF" p-id="2368"></path></svg>