<svg t="1621949866706" class="icon" viewBox="0 0 1024 1024" version="1.1" xmlns="http://www.w3.org/2000/svg" p-id="4004" width="16" height="16"><path d="M256.621146 528.59083L463.740976 390.709805h96.493489l207.167925 137.882049v385.641379H616.860023V775.49468c0-57.692865-47.172275-104.888676-104.842627-104.888676h-0.047072c-57.659096 0-104.854907 47.195811-104.854906 104.888676v138.73753H256.621146V528.59083z" fill="#E50012" p-id="4005"></path><path d="M364.243067 209.265699h99.497909v-99.498932h96.493489V209.265699h99.522468v96.529304h-99.522468v99.49791H463.740976v-99.49791h-99.497909zM20.879498 699.631003c-6.864324 3.063773-13.775721 6.271831-13.775721 13.80028V900.45649c0 7.530495 6.175641 13.776744 13.775721 13.776743h183.225678V616.903002L20.879498 699.631003zM1003.120502 699.631003c6.840788 3.063773 13.775721 6.271831 13.775721 13.80028V900.45649c0 7.530495-6.174617 13.776744-13.775721 13.776743H819.894824V616.903002l183.225678 82.728001z" fill="#E50012" p-id="4006"></path></svg>