<svg t="1622029455803" class="icon" viewBox="0 0 1024 1024" version="1.1" xmlns="http://www.w3.org/2000/svg" p-id="7096" width="16" height="16"><path d="M512 256C230.4 256 42.666667 533.333333 42.666667 533.333333S230.4 810.666667 512 810.666667s469.333333-277.333333 469.333333-277.333334S793.6 256 512 256z m0 460.288c-103.168 0-186.709333-82.346667-186.709333-183.893333S408.917333 348.416 512 348.416c103.168 0 186.709333 82.346667 186.709333 183.978667 0 101.546667-83.626667 183.893333-186.709333 183.893333z m-93.866667-183.466667c0 50.858667 41.813333 91.989333 93.354667 91.989334 51.626667 0 93.44-41.130667 93.44-91.904 0-50.858667-41.813333-91.989333-93.44-91.989334-51.541333 0-93.354667 41.130667-93.354667 91.989334z" fill="#424B54" p-id="7097"></path></svg>