<svg t="1615370637760" class="icon" viewBox="0 0 1024 1024" version="1.1" xmlns="http://www.w3.org/2000/svg" p-id="2211" width="48" height="48"><path d="M896.02 213.3v-42.66c0-23.46-19.2-42.66-42.66-42.66-23.47 0-42.66 19.2-42.66 42.66v42.66h-85.32v-42.66c0-23.46-19.2-42.66-42.66-42.66-23.47 0-42.66 19.2-42.66 42.66v42.66h-85.32v-42.66c0-23.46-19.2-42.66-42.66-42.66-23.47 0-42.66 19.2-42.66 42.66v42.66H384.1v-42.66c0-23.46-19.2-42.66-42.66-42.66s-42.66 19.2-42.66 42.66v42.66h-85.32v-42.66c0-23.46-19.2-42.66-42.66-42.66s-42.66 19.2-42.66 42.66v42.66c-23.47 0-42.66 19.2-42.66 42.66v597.25c0 23.46 19.2 42.66 42.66 42.66h767.89c23.47 0 42.66-19.2 42.66-42.66V255.96c-0.01-23.46-19.21-42.66-42.67-42.66z m-42.66 597.25H170.79V298.62h682.56v511.93z" fill="#e6e6e6" p-id="2212"></path><path d="M298.77 383.85c-23.56 0-42.66 19.1-42.66 42.66v255.96c0 23.56 19.1 42.66 42.66 42.66 23.56 0 42.66-19.1 42.66-42.66V426.51c0-23.56-19.1-42.66-42.66-42.66zM554.73 383.85H426.75c-23.56 0-42.66 19.1-42.66 42.66v255.96c0 23.56 19.1 42.66 42.66 42.66h127.98c23.56 0 42.66-19.1 42.66-42.66V426.51c0.01-23.56-19.09-42.66-42.66-42.66z m-42.66 255.97h-42.66V469.17h42.66v170.65z" fill="#e6e6e6" p-id="2213"></path><path d="M725.38 426.51m-42.66 0a42.66 42.66 0 1 0 85.32 0 42.66 42.66 0 1 0-85.32 0Z" fill="#e6e6e6" p-id="2214"></path><path d="M725.38 554.5m-42.66 0a42.66 42.66 0 1 0 85.32 0 42.66 42.66 0 1 0-85.32 0Z" fill="#e6e6e6" p-id="2215"></path><path d="M725.38 682.48m-42.66 0a42.66 42.66 0 1 0 85.32 0 42.66 42.66 0 1 0-85.32 0Z" fill="#e6e6e6" p-id="2216"></path></svg>