<svg t="1621949321460" class="icon" viewBox="0 0 1024 1024" version="1.1" xmlns="http://www.w3.org/2000/svg" p-id="3458" width="16" height="16"><path d="M673.8 137.7H358.1L134.9 360.9v315.7l223.2 223.2h315.7L897 676.6V360.9z" fill="#FCDBD6" p-id="3459"></path><path d="M513.1 516.9m-277.5 0a277.5 277.5 0 1 0 555 0 277.5 277.5 0 1 0-555 0Z" fill="#FFFFFF" p-id="3460"></path><path d="M510.8 322.1c-139.7-0.1-135 131-135 131-0.3 112.4 135 262.3 135 262.3 139.7-140.9 137.3-262.3 137.3-262.3s4.8-130.9-137.3-131z m0 217.4c-47.7 0-86.4-38.7-86.4-86.4s38.7-86.4 86.4-86.4 86.4 38.7 86.4 86.4-38.7 86.4-86.4 86.4z" fill="#E3502F" p-id="3461"></path><path d="M510.8 453.1m-86.4 0a86.4 86.4 0 1 0 172.8 0 86.4 86.4 0 1 0-172.8 0Z" fill="#FFFFFF" p-id="3462"></path></svg>