<svg t="1621676071639" class="edit" viewBox="0 0 1024 1024" version="1.1" xmlns="http://www.w3.org/2000/svg" p-id="5166" width="24" height="24"><path d="M99.84 797.44l297.6-42.88-277.76-265.6L71.04 768a25.6 25.6 0 0 0 28.8 29.44z m64-357.76L444.16 704l284.16-296.96L448 142.72zM545.28 43.52l-47.36 49.92 277.76 264.96 47.36-49.92a30.08 30.08 0 0 0 0-42.24L588.16 42.24a30.08 30.08 0 0 0-42.88 1.28zM192 832h256v128H192zM832 832h128v128h-128zM576 832h128v128H576z" fill="#ffffff" p-id="5167"></path></svg>