<svg t="1621950064930" class="icon" viewBox="0 0 1024 1024" version="1.1" xmlns="http://www.w3.org/2000/svg" p-id="5293" width="16" height="16"><path d="M704.1 980.1c-26.3 0-48.5-19.9-51.6-45.7-0.3-1.3-0.4-2.6-0.4-4V861 736.1c0-17.3 8.5-33.1 22.1-42.6v-69.6L535.5 704c-7.9 4.6-16.9 7-26 7-9.5 0-18.9-2.6-27-7.6L276 584.2v72c0 28.7-23.3 52-52 52-7.7 0-15.1-1.7-21.7-4.7 14.7 23.8 32.2 45.8 52.3 65.9 33.5 33.5 72.4 59.7 115.7 78 44.8 19 92.5 28.6 141.7 28.6 18.9 0 37.8-1.4 56.3-4.3 2.7-0.4 5.4-0.6 8-0.6 28.6 0 51.8 23.2 51.8 51.7v0.5c0 25.7-18.3 47.2-43.6 51.1-23.8 3.7-48.2 5.6-72.5 5.6-63.1 0-124.4-12.4-182.2-36.9C274.1 919.3 224 885.5 181 842.5c-43-43.1-76.8-93.2-100.3-149C56.3 635.7 43.9 574.4 44 511.2c0.1-63 12.5-124.1 36.8-181.6 23.5-55.6 57.2-105.5 100-148.4C223.6 138.3 273.5 104.6 329 81c57.5-24.4 118.6-36.9 181.5-37.1h1.5c62.9 0 124 12.2 181.4 36.3 55.5 23.3 105.4 56.6 148.3 99.2 42.9 42.5 76.7 92.1 100.4 147.5C966.7 384.1 979.5 445 980 508c0.7 84.3-21.3 167.2-63.6 239.6-39.1 66.9-94.3 123.2-160.3 163.7v16.9c0 28.6-23.3 51.9-52 51.9z m30.2-286.4c13.5 9.6 21.9 25.2 21.9 42.4v45.8c4.5-4.1 8.9-8.3 13.2-12.6 20-20 37.5-42 52.2-65.7-6.5 3-13.8 4.6-21.4 4.6-28.7 0-52-23.3-52-52v-74.9l-13.9 8v104.4zM148 511.9c0 45.1 8.1 88.9 24 130.5V524.1l-24-13.9v1.7z m704.1 129.9c15.8-41.4 23.9-85 23.9-129.9v-4.5l-23.8 13.8v120.6z m-342.6-42.9l118.6-68.4-131.8-76.1c-14.3-8.3-19.3-26.7-11-41 5.3-9.3 15.3-15 26-15 5.3 0 10.4 1.4 15 4l161.8 93.4 109.1-63L512 268.2l-287.6 166 285.1 164.7z m2.5-451c-49.2 0-96.8 9.6-141.7 28.6-43.3 18.3-82.3 44.6-115.7 78-22.9 22.9-42.3 48.3-58.3 75.9L486 163.2c7.9-4.6 16.9-7 26-7 9.5 0 18.9 2.6 27 7.6l288.6 166.6c-15.9-27.6-35.4-53-58.2-75.9-33.5-33.5-72.4-59.7-115.7-78-44.9-19-92.5-28.6-141.7-28.6z" fill="#BBFFFF" p-id="5294"></path><path d="M960 508.1C958 261 757.7 63.1 510.6 63.8 264 64.6 64.3 264.6 64 511.3c-0.3 247.3 200.7 448.6 448 448.6 23.6 0 46.8-1.8 69.4-5.3 15.4-2.4 26.7-15.7 26.7-31.3v-0.5c0-19.5-17.5-34.3-36.8-31.3-19.5 3-39.3 4.5-59.3 4.5-51.9 0-102.2-10.1-149.5-30.2-45.7-19.3-86.8-47-122.1-82.3s-63-76.4-82.3-122.1c-20-47.3-30.2-97.6-30.2-149.5 0-11.9 0.5-23.7 1.6-35.3l62.5 36.1v143.6c0 17.7 14.3 32 32 32s32-14.3 32-32V549.6l236.7 136.6c9.7 6 22.2 6.5 32.8 0.5l168.8-97.4v116.4c-12.8 4.2-22.1 16.2-22.1 30.4v194.3h0.1c1.2 16.6 15 29.7 31.9 29.7 17.7 0 32-14.3 32-32v-28.3C871 821.8 961.4 675.5 960 508.1z m-271.9 10.8l-171.8-99.2c-4.8-2.8-10.9-1.1-13.7 3.7-2.8 4.8-1.1 10.9 3.7 13.7l161.8 93.4L509.5 622 184.4 434.3 512 245.1l325.1 187.7-149 86.1zM240.5 240.4c35.3-35.3 76.4-63 122.1-82.3 47.3-20 97.6-30.2 149.5-30.2 51.9 0 102.2 10.1 149.5 30.2 45.7 19.3 86.8 47 122.1 82.3s63 76.4 82.3 122.1c2.4 5.6 4.6 11.3 6.7 17L528.8 180.9c-9.7-6-22.2-6.5-32.8-0.5l-344.6 199c2.1-5.7 4.3-11.4 6.7-17 19.4-45.7 47.1-86.8 82.4-122z m495.6 583.3v-87.6c0-14.1-9.2-26.1-21.9-30.3V577.7l53.9-31.1v109.6c0 17.7 14.3 32 32 32s32-14.3 32-32v-146-0.6l62-35.8c1.2 12.6 1.8 25.3 1.8 38.1 0 51.9-10.1 102.1-30.2 149.5-19.3 45.7-47 86.8-82.3 122.1-14.7 14.7-30.5 28.2-47.3 40.2z" fill="#5DD8F9" p-id="5295"></path></svg>