<svg t="1622089555204" class="icon" viewBox="0 0 1024 1024" version="1.1" xmlns="http://www.w3.org/2000/svg" p-id="2371" width="16" height="16"><path d="M595.47117036 201.31081482h341.75810372a31.06891852 31.06891852 0 0 0 0-62.13783704h-341.75810372a31.06891852 31.06891852 0 0 0 0 62.13783704zM374.88184889 52.18000592h-217.48242964a93.20675555 93.20675555 0 0 0-93.20675555 93.20675556v217.48242963a93.20675555 93.20675555 0 0 0 93.20675555 93.20675556h217.48242964a93.20675555 93.20675555 0 0 0 93.20675555-93.20675556V145.38676148a93.20675555 93.20675555 0 0 0-93.20675555-93.20675556z m31.06891852 310.68918519a31.06891852 31.06891852 0 0 1-31.06891852 31.06891852h-217.48242964a31.06891852 31.06891852 0 0 1-31.06891851-31.06891852V145.38676148a31.06891852 31.06891852 0 0 1 31.06891851-31.06891851h217.48242964a31.06891852 31.06891852 0 0 1 31.06891852 31.06891851zM374.88184889 555.49648592h-217.48242964a93.20675555 93.20675555 0 0 0-93.20675555 93.20675556v217.48242963a93.20675555 93.20675555 0 0 0 93.20675555 93.20675556h217.48242964a93.20675555 93.20675555 0 0 0 93.20675555-93.20675556v-217.48242963a93.20675555 93.20675555 0 0 0-93.20675555-93.20675556z m31.06891852 310.68918519a31.06891852 31.06891852 0 0 1-31.06891852 31.06891852h-217.48242964a31.06891852 31.06891852 0 0 1-31.06891851-31.06891852v-217.48242963a31.06891852 31.06891852 0 0 1 31.06891851-31.06891851h217.48242964a31.06891852 31.06891852 0 0 1 31.06891852 31.06891851zM937.22927408 300.73135408h-341.75810372a31.06891852 31.06891852 0 0 0 0 62.13783703h341.75810372a31.06891852 31.06891852 0 0 0 0-62.13783703zM937.22927408 642.48945778h-341.75810372a31.06891852 31.06891852 0 0 0 0 62.13783704h341.75810372a31.06891852 31.06891852 0 0 0 0-62.13783704zM937.22927408 804.04783408h-341.75810372a31.06891852 31.06891852 0 0 0 0 62.13783703h341.75810372a31.06891852 31.06891852 0 0 0 0-62.13783703z" p-id="2372"></path></svg>