<svg t="1621950248273" class="icon" viewBox="0 0 1024 1024" version="1.1" xmlns="http://www.w3.org/2000/svg" p-id="7644" width="16" height="16"><path d="M510.1312 422.6048c-103.5264 0-187.7504-84.224-187.7504-187.7504s84.224-187.7504 187.7504-187.7504c103.5264 0 187.7504 84.224 187.7504 187.7504s-84.224 187.7504-187.7504 187.7504z m0-329.4208c-78.1056 0-141.6704 63.5648-141.6704 141.6704s63.5648 141.6704 141.6704 141.6704 141.6704-63.5648 141.6704-141.6704-63.5648-141.6704-141.6704-141.6704z" fill="#3F3F3F" p-id="7645"></path><path d="M674.8416 722.5088m-217.6512 0a217.6512 217.6512 0 1 0 435.3024 0 217.6512 217.6512 0 1 0-435.3024 0Z" fill="#97E9FF" p-id="7646"></path><path d="M510.464 574.4384l-240.5632-149.76 24.3456-39.1168 216.2176 134.6048 216.2432-134.6048 24.3456 39.1168z" fill="#3F3F3F" p-id="7647"></path><path d="M513.152 983.0656L134.0416 839.2192 62.7968 358.6048l450.3552 276.0448 450.3552-276.0448-71.2448 480.6144-379.1104 143.8464zM175.6672 805.7344l337.4848 128.0512 337.4848-128.0512 52.8128-356.2496-390.2976 239.232-390.2976-239.2576 52.8128 356.2752z" fill="#3F3F3F" p-id="7648"></path></svg>