<svg t="1621949947087" class="icon" viewBox="0 0 1024 1024" version="1.1" xmlns="http://www.w3.org/2000/svg" p-id="4584" width="16" height="16"><path d="M886.465049 549.015082V869.392787l-31.374688-8.108066-20.731804-5.203934c-139.767607-34.849574-241.261115-52.324721-305.773114-52.324721-72.351475 0-192.629508 21.99082-362.764591 65.821377v-322.140328a27.026885 27.026885 0 0 1 21.604722-26.489705l57.579016-11.700459a33.57377 33.57377 0 1 0-12.791606-65.905312l-58.31764 11.834754a94.174426 94.174426 0 0 0-75.205246 92.243935v326.38741a63.874098 63.874098 0 0 0 79.855213 61.842885l20.631082-5.287869 20.110689-5.069639c145.542295-36.293246 249.134164-54.389508 309.298361-54.389508 65.502426 0 181.096918 21.453639 344.920131 64.512a63.874098 63.874098 0 0 0 80.107016-61.775738v-324.658361a94.174426 94.174426 0 0 0-78.025442-92.764328l-21.302558-3.961705-46.88577-9.048131a33.57377 33.57377 0 0 0-13.865968 65.653508l3.357378 0.671476 59.140196 11.381508 8.057705 1.460459a27.026885 27.026885 0 0 1 22.376918 26.624z" fill="#2F2F2F" p-id="4585"></path><path d="M546.480262 59.962754a33.57377 33.57377 0 0 1 6.395804 6.379016l89.591606 117.827148a33.57377 33.57377 0 0 0 15.645377 11.381508l139.734033 48.782689a33.57377 33.57377 0 0 1 16.518295 50.830688l-84.370885 121.620984a33.57377 33.57377 0 0 0-5.976131 18.398426l-3.223082 147.959607a33.57377 33.57377 0 0 1-43.243017 31.425049l-141.731672-42.638689a33.57377 33.57377 0 0 0-19.338492 0l-141.731672 42.638689a33.57377 33.57377 0 0 1-43.243016-31.425049l-3.223082-147.959607a33.57377 33.57377 0 0 0-5.976131-18.398426l-84.370886-121.620984a33.57377 33.57377 0 0 1 16.518296-50.830688l139.734032-48.782689a33.57377 33.57377 0 0 0 15.645377-11.381508l89.591607-117.810361a33.57377 33.57377 0 0 1 47.053639-6.395803z m-20.328918 82.18859l-62.866885 82.658623a100.721311 100.721311 0 0 1-46.969705 34.127738l-98.03541 34.245246 59.190558 85.327738a100.721311 100.721311 0 0 1 17.94518 55.212065l2.266229 103.826885 99.445509-29.931016a100.721311 100.721311 0 0 1 58.049049 0l99.445508 29.931016 2.26623-103.826885a100.721311 100.721311 0 0 1 17.94518-55.228852l59.190557-85.310951-98.03541-34.245246a100.721311 100.721311 0 0 1-46.969704-34.127738l-62.866886-82.658623z" fill="#FE4747" p-id="4586"></path></svg>