<svg t="1621949198400" class="icon" viewBox="0 0 1024 1024" version="1.1" xmlns="http://www.w3.org/2000/svg" p-id="2420" width="16" height="16"><path d="M419.480385 245.09524m-218.097093 0a218.097093 218.097093 0 1 0 436.194186 0 218.097093 218.097093 0 1 0-436.194186 0Z" fill="#CFEB70" p-id="2421"></path><path d="M541.547877 232.717292c-1.763993 0-3.553985-0.189999-5.291978-0.541998a28.325882 28.325882 0 0 1-5.101979-1.545993 27.505886 27.505886 0 0 1-4.66598-2.49599 25.933892 25.933892 0 0 1-4.123983-3.363986 27.737885 27.737885 0 0 1-3.391986-4.123983 26.827888 26.827888 0 0 1-2.46999-4.69398 27.463886 27.463886 0 0 1-1.573993-5.073979 28.86388 28.86388 0 0 1-0.515998-5.291978c0-1.763993 0.189999-3.553985 0.515998-5.289978a28.419882 28.419882 0 0 1 4.043983-9.76796 27.737885 27.737885 0 0 1 3.391986-4.123982 27.737885 27.737885 0 0 1 4.123983-3.391986 27.599885 27.599885 0 0 1 4.66598-2.46999c1.655993-0.677997 3.363986-1.219995 5.101979-1.573994a27.779884 27.779884 0 0 1 10.581956 0c1.735993 0.351999 3.445986 0.895996 5.073979 1.573994a26.55989 26.55989 0 0 1 4.69398 2.46999 27.737885 27.737885 0 0 1 4.123983 3.391986 25.933892 25.933892 0 0 1 3.363986 4.123982c0.975996 1.465994 1.817992 3.037987 2.49599 4.665981 0.677997 1.655993 1.193995 3.363986 1.545993 5.101979 0.351999 1.735993 0.541998 3.527985 0.541998 5.289978 0 1.763993-0.189999 3.553985-0.541998 5.291978a27.379886 27.379886 0 0 1-1.545993 5.073979c-0.677997 1.655993-1.519994 3.227987-2.49599 4.69398a25.933892 25.933892 0 0 1-3.363986 4.123983 25.933892 25.933892 0 0 1-4.123983 3.363986c-1.465994 0.975996-3.037987 1.817992-4.69398 2.49599a27.379886 27.379886 0 0 1-5.073979 1.545993c-1.735993 0.351999-3.525985 0.541998-5.289978 0.541998zM328.736762 181.499505a27.037888 27.037888 0 0 1-19.18592-7.947967c-10.595956-10.595956-10.595956-27.775884 0-38.37384 54.627773-54.623773 142.223408-60.661748 203.745153-14.041942 11.94395 9.047962 14.291941 26.065892 5.239978 38.011842-9.047962 11.94395-26.069892 14.291941-38.011842 5.239978-40.035833-30.335874-97.041596-26.39789-132.603448 9.161962a27.033888 27.033888 0 0 1-19.183921 7.949967z" fill="" p-id="2422"></path><path d="M592.871664 71.707962c-95.611602-95.609602-251.182955-95.611602-346.794558 0-89.123629 89.123629-95.129604 230.329042-18.099924 326.520641l-112.803531 112.803531V474.518286c0-14.985938-12.147949-27.133887-27.133887-27.133887s-27.133887 12.147949-27.133887 27.133887v102.017576c0 14.985938 12.147949 27.133887 27.133887 27.133887h102.019575c14.985938 0 27.133887-12.147949 27.133887-27.133887s-12.147949-27.133887-27.133887-27.133888H153.547491l112.795531-112.79753c43.33182 34.783855 96.765597 53.717777 153.131363 53.717776 65.501728 0 127.081471-25.507894 173.395279-71.823701 46.315807-46.315807 71.823701-107.895551 71.823701-173.397279s-25.503894-127.077471-71.821701-173.393278z m-38.371841 308.422717c-0.002 0-0.002 0 0 0-36.06585 36.06585-84.01765 55.929767-135.025438 55.929767s-98.959588-19.863917-135.025438-55.929767c-74.45369-74.45169-74.45369-195.595186 0-270.048877 37.231845-37.231845 86.121642-55.839768 135.025438-55.839768 48.893797 0 97.801593 18.617923 135.023438 55.839768 36.06585 36.06585 55.929767 84.01765 55.929768 135.025438s-19.861917 98.957588-55.927768 135.023439z" fill="" p-id="2423"></path><path d="M599.401636 778.88502m-218.097092 0a218.097093 218.097093 0 1 0 436.194185 0 218.097093 218.097093 0 1 0-436.194185 0Z" fill="#FF5E8A" p-id="2424"></path><path d="M477.350144 845.546742c-1.763993 0-3.553985-0.161999-5.317978-0.515997a28.79788 28.79788 0 0 1-5.073979-1.573994 27.239887 27.239887 0 0 1-4.66598-2.46999 27.737885 27.737885 0 0 1-4.123983-3.391986 27.737885 27.737885 0 0 1-3.391986-4.123982 27.581885 27.581885 0 0 1-2.49599-4.665981 28.689881 28.689881 0 0 1-1.545993-5.073979 27.225887 27.225887 0 0 1-0.515998-5.317978c0-1.763993 0.161999-3.553985 0.515998-5.291978a27.379886 27.379886 0 0 1 1.545993-5.073979c0.677997-1.655993 1.519994-3.227987 2.49599-4.69398a27.737885 27.737885 0 0 1 3.391986-4.123983 25.933892 25.933892 0 0 1 4.123983-3.363986 27.581885 27.581885 0 0 1 4.66598-2.49599 28.689881 28.689881 0 0 1 5.073979-1.545993 26.839888 26.839888 0 0 1 10.609956 0 27.379886 27.379886 0 0 1 5.073979 1.545993c1.655993 0.677997 3.227987 1.519994 4.69398 2.49599a25.933892 25.933892 0 0 1 4.123983 3.363986 25.933892 25.933892 0 0 1 3.363986 4.123983c0.975996 1.465994 1.817992 3.037987 2.49599 4.69398 0.677997 1.627993 1.193995 3.337986 1.545994 5.073979 0.351999 1.735993 0.541998 3.527985 0.541997 5.291978 0 1.763993-0.189999 3.553985-0.541997 5.317978a28.689881 28.689881 0 0 1-1.545994 5.073979c-0.677997 1.627993-1.519994 3.201987-2.49599 4.665981a25.933892 25.933892 0 0 1-3.363986 4.123982 27.737885 27.737885 0 0 1-4.123983 3.391986c-1.465994 0.975996-3.037987 1.789993-4.69398 2.46999-1.627993 0.677997-3.337986 1.221995-5.073979 1.573994-1.737993 0.353999-3.527985 0.515998-5.291978 0.515997zM599.223637 934.176374c-32.903863 0-65.909726-10.313957-93.63161-31.31987-11.94395-9.047962-14.291941-26.065892-5.239979-38.011842 9.047962-11.94595 26.071892-14.291941 38.011842-5.239978 40.031833 30.331874 97.043596 26.39789 132.599449-9.161962 10.595956-10.595956 27.775884-10.595956 38.37384 0 10.595956 10.595956 10.595956 27.775884 0 38.37384-30.009875 30.013875-69.985709 45.359811-110.113542 45.359812z" fill="" p-id="2425"></path><path d="M955.144156 535.400033l-36.933846-36.933847 31.22587-31.22587c10.595956-10.595956 10.595956-27.775884 0-38.37384-10.595956-10.595956-27.775884-10.595956-38.37384 0l-31.22587 31.22387-36.933847-36.933846c-10.595956-10.595956-27.775884-10.595956-38.37384 0-10.595956 10.595956-10.595956 27.775884 0 38.37384l36.933846 36.933846-88.92363 88.92363c-43.32982-34.783855-96.761597-53.717777-153.129363-53.717776-65.501728 0-127.081471 25.507894-173.397278 71.823701-95.609602 95.611602-95.609602 251.182955 0 346.794557C473.818159 1000.094099 536.611898 1023.996 599.409636 1023.996s125.591478-23.901901 173.397279-71.707702c46.315807-46.315807 71.823701-107.897551 71.823701-173.397278 0-56.365766-18.933921-109.799543-53.717776-153.129363l88.92163-88.92163 36.933846 36.933846c5.299978 5.299978 12.241949 7.947967 19.18592 7.947967s13.889942-2.647989 19.18592-7.947967c10.601956-10.595956 10.601956-27.777884 0.004-38.37384zM734.437075 913.916458c-74.45169 74.45369-195.595186 74.45369-270.048877 0s-74.45369-195.597186 0-270.048877c36.06585-36.06585 84.01765-55.929767 135.025438-55.929767 51.001788 0 98.949588 19.861917 135.015439 55.921767l0.008 0.008 0.008 0.008c36.05985 36.06585 55.921767 84.01165 55.921767 135.015439 0 51.007788-19.861917 98.959588-55.929767 135.025438z" fill="" p-id="2426"></path></svg>