<svg t="1622028695145" class="icon" viewBox="0 0 1063 1024" version="1.1" xmlns="http://www.w3.org/2000/svg" p-id="5171" width="16" height="16"><path d="M801.634462 1023.566769c-14.926769 0-31.744-4.332308-47.340308-12.091077l-222.404923-111.222154-223.744 111.064616c-14.178462 7.522462-30.404923 11.500308-46.946462 11.500308a100.036923 100.036923 0 0 1-59.707077-19.53477c-31.350154-23.512615-47.379692-64.196923-39.975384-101.218461l45.764923-237.489231L31.901538 501.129846a107.913846 107.913846 0 0 1-27.254153-104.448l0.393846-1.181538c12.721231-38.203077 44.347077-65.024 82.707692-70.183385l243.712-44.307692 109.410462-222.168616C458.397538 23.591385 494.158769 0.984615 531.968 0.984615c39.384615 0 76.012308 23.433846 91.411692 58.407385l109.056 221.499077 243.79077 42.614154a99.249231 99.249231 0 0 1 81.171692 70.931692c12.012308 37.021538 2.363077 77.154462-25.363692 104.841846l-0.59077 0.590769-174.907077 164.706462 44.150154 237.883077a102.124308 102.124308 0 0 1-39.463384 100.391385c-16.344615 13.390769-37.494154 20.716308-59.588923 20.716307z m-269.824-201.649231l237.174153 118.547693a51.2 51.2 0 0 0 20.48 5.750154 34.382769 34.382769 0 0 0 22.055385-7.404308l1.102769-0.905846c13.508923-10.121846 20.046769-26.151385 17.092923-41.905231l-47.734154-257.024 188.770462-177.821538c11.539692-11.736615 15.517538-28.553846 10.358154-44.032l-0.472616-1.61477a38.912 38.912 0 0 0-32.295384-28.16l-1.063385-0.157538-261.198769-45.686154-117.484308-238.749538c-5.710769-13.312-21.228308-23.000615-36.824615-23.000616-15.36 0-30.089846 9.609846-37.533539 24.497231L377.462154 341.425231l-262.537846 47.655384c-15.950769 2.008615-28.356923 12.603077-34.067693 29.144616-4.056615 15.123692 0.787692 33.319385 11.815385 44.622769l188.967385 176.088615-49.585231 257.181539c-2.993231 14.926769 4.056615 32.019692 17.092923 41.787077 6.537846 4.923077 15.005538 7.601231 23.867077 7.601231 6.852923 0 13.390769-1.575385 19.062154-4.647385l0.787692-0.393846 238.946462-118.547693z" fill="#d81e06" p-id="5172"></path><path d="M801.358769 473.009231a12.445538 12.445538 0 0 1-2.323692-0.196923l-180.381539-31.507693L537.993846 277.267692a13.312 13.312 0 1 1 23.906462-11.815384l74.752 151.867077 167.030154 29.184a13.312 13.312 0 0 1-2.284308 26.466461z" fill="#d81e06" p-id="5173"></path></svg>