<svg t="1621950169455" class="icon" viewBox="0 0 1076 1024" version="1.1" xmlns="http://www.w3.org/2000/svg" p-id="5852" width="16" height="16"><path d="M33.911964 492.571271h1008.739616v53.270043H33.911964z" fill="#CDD5D7" p-id="5853"></path><path d="M1058.477163 561.666897H18.086381v-84.779909h1040.390782zM49.737547 530.015731h977.08845V508.679454H49.737547z" fill="#484F59" p-id="5854"></path><path d="M106.398786 585.122671L91.279702 815.724024h137.343452l-15.119083-230.601353H106.398786z" fill="#F7F8FC" p-id="5855"></path><path d="M245.437836 831.549607H74.46502l17.097282-262.252519h136.778253z m-137.202152-31.651166H211.949772l-12.999586-199.091486h-77.714916z" fill="#484F59" p-id="5856"></path><path d="M92.6927 545.841314h134.517456v53.270042H92.6927z" fill="#CDD5D7" p-id="5857"></path><path d="M243.035739 614.79564H76.867117v-84.779909H243.035739z m-134.517456-31.509867H211.949772v-21.618876H108.518283z" fill="#484F59" p-id="5858"></path><path d="M73.052022 814.876225h173.798813v67.258727H73.052022z" fill="#CDD5D7" p-id="5859"></path><path d="M262.676418 897.819236H57.226439v-98.909894h205.449979z m-173.798813-31.509867h142.147647v-35.607561H88.877605z" fill="#484F59" p-id="5860"></path><path d="M358.619015 585.122671l-15.119084 230.601353h137.202153l-14.977784-230.601353h-107.105285z" fill="#F7F8FC" p-id="5861"></path><path d="M497.658065 831.549607h-170.972816l17.097282-262.252519H480.419484z m-137.202152-31.651166h103.431489l-12.999586-199.091486h-77.432317z" fill="#484F59" p-id="5862"></path><path d="M344.912929 545.841314h134.517456v53.270042h-134.517456z" fill="#CDD5D7" p-id="5863"></path><path d="M495.255968 614.79564H329.087346v-84.779909h166.168622z m-134.517456-31.509867h102.86629v-21.618876h-102.86629z" fill="#484F59" p-id="5864"></path><path d="M325.272251 814.876225h173.657513v67.258727H325.272251z" fill="#CDD5D7" p-id="5865"></path><path d="M514.755347 897.819236H309.446668v-98.909894h205.308679z m-173.657513-31.509867H483.245481v-35.607561H341.097834z" fill="#484F59" p-id="5866"></path><path d="M610.839244 585.122671l-15.119084 230.601353h137.202153l-14.977784-230.601353h-107.105285z" fill="#F7F8FC" p-id="5867"></path><path d="M749.878294 831.549607H579.329378l17.097281-262.252519h136.636954z m-137.343452-31.651166h103.572789l-12.999586-199.091486h-77.432317z" fill="#484F59" p-id="5868"></path><path d="M597.133159 545.841314h134.517455v53.270042h-134.517455z" fill="#CDD5D7" p-id="5869"></path><path d="M747.476197 614.79564H581.307576v-84.779909H747.476197z m-134.658755-31.509867h103.007589v-21.618876h-103.007589z" fill="#484F59" p-id="5870"></path><path d="M577.49248 814.876225h173.657513v67.258727H577.49248z" fill="#CDD5D7" p-id="5871"></path><path d="M766.975576 897.819236H561.666897v-98.909894h205.308679zM593.459362 866.309369h142.006348v-35.607561H593.459362z" fill="#484F59" p-id="5872"></path><path d="M863.059473 585.122671l-15.119084 230.601353h137.202153l-15.119084-230.601353h-106.963985z" fill="#F7F8FC" p-id="5873"></path><path d="M1001.957224 831.549607H831.125707L847.799089 569.297088h137.060853z m-137.202153-31.651166h103.572789l-12.999586-199.091486h-77.573617z" fill="#484F59" p-id="5874"></path><path d="M849.353388 545.841314h134.517455v53.270042h-134.517455z" fill="#CDD5D7" p-id="5875"></path><path d="M999.555126 614.79564H833.669104v-84.779909h165.886022z m-134.517455-31.509867h103.007589v-21.618876h-103.007589z" fill="#484F59" p-id="5876"></path><path d="M829.712709 814.876225h173.798813v67.258727h-173.798813z" fill="#CDD5D7" p-id="5877"></path><path d="M1019.195805 897.819236H813.887126v-98.909894h205.308679z m-173.798813-31.509867h142.147647v-35.607561H845.396992z" fill="#484F59" p-id="5878"></path><path d="M33.911964 877.895957h1008.739616v130.27846H33.911964z" fill="#F7F8FC" p-id="5879"></path><path d="M1058.477163 1024H18.086381V861.929074h1040.390782zM49.737547 992.348834h977.08845v-98.909894H49.737547z" fill="#484F59" p-id="5880"></path><path d="M798.909342 919.862012z" fill="#CDD5D7" p-id="5881"></path><path d="M277.654202 904.036429h521.25514v31.651166H277.654202z" fill="#484F59" p-id="5882"></path><path d="M798.909342 960.838968z" fill="#CDD5D7" p-id="5883"></path><path d="M277.654202 945.437284h521.25514v31.651166H277.654202z" fill="#484F59" p-id="5884"></path><path d="M538.211122 145.821443l264.795915 173.374914 264.795916 173.516214H8.619291l264.795915-173.516214 264.795916-173.374914z" fill="#F7F8FC" p-id="5885"></path><path d="M1067.802953 508.679454H8.619291L0 480.419484 529.591831 132.539258h17.379881l529.591832 346.891127zM61.606734 476.886988h953.208776L538.211122 164.755623z" fill="#484F59" p-id="5886"></path><path d="M202.482682 434.779633l335.72844-219.862564 335.728439 219.862564H202.482682z" fill="#CDD5D7" p-id="5887"></path><path d="M538.211122 233.851249l282.599696 185.102801h-565.199393l282.599697-185.102801z m0-37.86836l-388.715883 254.339727h777.149166l-388.715883-254.339727z" fill="#484F59" p-id="5888"></path><path d="M538.211122 156.277632z" fill="#CDD5D7" p-id="5889"></path><path d="M522.385539 0h31.651166v156.277632h-31.651166z" fill="#484F59" p-id="5890"></path><path d="M643.479509 129.99586V37.02056h110.779081l-20.771078 46.48765 20.771078 46.48765h-110.779081z" fill="#FF7A7A" p-id="5891"></path><path d="M778.562164 145.821443H627.653926V21.194977H778.562164l-28.25997 62.313233z m-119.257072-31.651166h70.649924l-14.129985-30.662067 14.129985-30.662067h-70.649924z" fill="#484F59" p-id="5892"></path><path d="M538.635021 119.539672V26.423072h118.126673v93.1166h-118.126673z" fill="#FF8F8F" p-id="5893"></path><path d="M672.587277 135.223955H522.809438V10.597489h149.777839z m-118.126673-31.509866h86.475507V42.389954h-86.475507z" fill="#484F59" p-id="5894"></path></svg>